<svg width="20" height="16" viewBox="0 0 20 16" fill="none" xmlns="http://www.w3.org/2000/svg">
<path fill-rule="evenodd" clip-rule="evenodd" d="M0.5 2C0.5 1.17157 1.17157 0.5 2 0.5H18C18.8284 0.5 19.5 1.17157 19.5 2C19.5 2.82843 18.8284 3.5 18 3.5H2C1.17157 3.5 0.5 2.82843 0.5 2ZM0.5 8C0.5 7.17157 1.17157 6.5 2 6.5H18C18.8284 6.5 19.5 7.17157 19.5 8C19.5 8.82843 18.8284 9.5 18 9.5H2C1.17157 9.5 0.5 8.82843 0.5 8ZM0.5 14C0.5 13.1716 1.17157 12.5 2 12.5H18C18.8284 12.5 19.5 13.1716 19.5 14C19.5 14.8284 18.8284 15.5 18 15.5H2C1.17157 15.5 0.5 14.8284 0.5 14Z" fill="#EB6E0A"/>
</svg>
