<svg width="27" height="27" viewBox="0 0 27 27" fill="none" xmlns="http://www.w3.org/2000/svg">
<path fill-rule="evenodd" clip-rule="evenodd" d="M1.66663 0.916668C1.25241 0.916668 0.916626 1.25245 0.916626 1.66667C0.916626 2.08088 1.25241 2.41667 1.66663 2.41667H4.41438L4.93902 4.51524L7.37649 14.2651C5.99409 14.4101 4.91663 15.5792 4.91663 17C4.91663 18.5188 6.14784 19.75 7.66663 19.75H23C23.4142 19.75 23.75 19.4142 23.75 19C23.75 18.5858 23.4142 18.25 23 18.25H7.66663C6.97627 18.25 6.41663 17.6904 6.41663 17C6.41663 16.3096 6.97627 15.75 7.66663 15.75H8.33329H23C23.3441 15.75 23.6441 15.5158 23.7276 15.1819L26.3942 4.51524C26.4502 4.29118 26.3999 4.05381 26.2578 3.87178C26.1157 3.68974 25.8976 3.58333 25.6666 3.58333H6.25221L5.72757 1.48477C5.6441 1.15089 5.34411 0.916668 4.99996 0.916668H1.66663ZM8.33329 22.25C7.1827 22.25 6.24996 23.1827 6.24996 24.3333C6.24996 25.4839 7.1827 26.4167 8.33329 26.4167C9.48389 26.4167 10.4166 25.4839 10.4166 24.3333C10.4166 23.1827 9.48389 22.25 8.33329 22.25ZM21.6666 22.25C20.516 22.25 19.5833 23.1827 19.5833 24.3333C19.5833 25.4839 20.516 26.4167 21.6666 26.4167C22.8172 26.4167 23.75 25.4839 23.75 24.3333C23.75 23.1827 22.8172 22.25 21.6666 22.25Z" fill="#EB6E0A"/>
</svg>
