<svg width="23" height="19" viewBox="0 0 23 19" fill="none" xmlns="http://www.w3.org/2000/svg">
<path d="M1.37476 1.625V0.875C0.960542 0.875 0.624756 1.21079 0.624756 1.625L1.37476 1.625ZM21.6248 1.625H22.3748C22.3748 1.21079 22.039 0.875 21.6248 0.875V1.625ZM21.6248 17.375V18.125C22.039 18.125 22.3748 17.7892 22.3748 17.375H21.6248ZM1.37476 17.375H0.624756C0.624756 17.7892 0.960542 18.125 1.37476 18.125L1.37476 17.375ZM1.73899 3.21938C1.3769 3.01822 0.920298 3.14868 0.719138 3.51077C0.517978 3.87286 0.648436 4.32946 1.01052 4.53062L1.73899 3.21938ZM11.4998 9.5L11.1355 10.1556C11.362 10.2815 11.6375 10.2815 11.864 10.1556L11.4998 9.5ZM21.989 4.53062C22.3511 4.32946 22.4815 3.87286 22.2804 3.51077C22.0792 3.14868 21.6226 3.01822 21.2605 3.21938L21.989 4.53062ZM1.37476 2.375H21.6248V0.875H1.37476V2.375ZM20.8748 1.625V17.375H22.3748V1.625H20.8748ZM21.6248 16.625H1.37476V18.125H21.6248V16.625ZM2.12476 17.375V1.625H0.624756V17.375H2.12476ZM1.01052 4.53062L11.1355 10.1556L11.864 8.84438L1.73899 3.21938L1.01052 4.53062ZM11.864 10.1556L21.989 4.53062L21.2605 3.21938L11.1355 8.84438L11.864 10.1556Z" fill="#AAAAAA"/>
</svg>
