<svg width="16" height="19" viewBox="0 0 16 19" fill="none" xmlns="http://www.w3.org/2000/svg">
<path fill-rule="evenodd" clip-rule="evenodd" d="M5.75 4C5.75 2.75736 6.75736 1.75 8 1.75C9.24264 1.75 10.25 2.75736 10.25 4V4.25H5.75V4ZM4.25 5.75V7C4.25 7.41421 4.58579 7.75 5 7.75C5.41422 7.75 5.75 7.41421 5.75 7V5.75H10.25V7C10.25 7.41421 10.5858 7.75 11 7.75C11.4142 7.75 11.75 7.41421 11.75 7V5.75H13.3055L14.1901 17.25H1.80991L2.69453 5.75H4.25ZM4.25 4.25V4C4.25 1.92893 5.92893 0.25 8 0.25C10.0711 0.25 11.75 1.92893 11.75 4V4.25H14C14.3919 4.25 14.7177 4.55173 14.7478 4.94248L15.7478 17.9425C15.7638 18.1508 15.6922 18.3563 15.5503 18.5096C15.4084 18.6629 15.2089 18.75 15 18.75H1C0.791094 18.75 0.591653 18.6629 0.44971 18.5096C0.307768 18.3563 0.236189 18.1508 0.252211 17.9425L1.25221 4.94248C1.28227 4.55173 1.6081 4.25 2 4.25H4.25Z" fill="#EB6E0A"/>
</svg>
