<svg width="16" height="19" viewBox="0 0 16 19" fill="none" xmlns="http://www.w3.org/2000/svg">
<path fill-rule="evenodd" clip-rule="evenodd" d="M4.75 5C4.75 3.20507 6.20507 1.75 8 1.75C9.79493 1.75 11.25 3.20507 11.25 5C11.25 6.79493 9.79493 8.25 8 8.25C6.20507 8.25 4.75 6.79493 4.75 5ZM8 0.25C5.37665 0.25 3.25 2.37665 3.25 5C3.25 7.62335 5.37665 9.75 8 9.75C10.6234 9.75 12.75 7.62335 12.75 5C12.75 2.37665 10.6234 0.25 8 0.25ZM1.75 16.3333C1.75 14.8886 2.88707 13.75 4.25 13.75H11.75C13.1129 13.75 14.25 14.8886 14.25 16.3333V17.25H1.75V16.3333ZM4.25 12.25C2.02307 12.25 0.25 14.0962 0.25 16.3333V18C0.25 18.4142 0.585786 18.75 1 18.75H15C15.4142 18.75 15.75 18.4142 15.75 18V16.3333C15.75 14.0962 13.9769 12.25 11.75 12.25H4.25Z" fill="#EB6E0A"/>
</svg>
