<svg width="22" height="19" viewBox="0 0 22 19" fill="none" xmlns="http://www.w3.org/2000/svg">
<path fill-rule="evenodd" clip-rule="evenodd" d="M11.4858 0.428545C11.2057 0.190485 10.7943 0.190485 10.5143 0.428545L3.51428 6.37855C3.5142 6.37862 3.51411 6.37869 3.51403 6.37876L0.514279 8.92854C0.198673 9.19681 0.160296 9.67013 0.428561 9.98574C0.696825 10.3013 1.17015 10.3397 1.48575 10.0715L3.25002 8.57183V17C3.25002 17.9665 4.03352 18.75 5.00002 18.75H17C17.9665 18.75 18.75 17.9665 18.75 17V8.57183L20.5143 10.0715C20.8299 10.3397 21.3032 10.3013 21.5715 9.98574C21.8397 9.67013 21.8014 9.19681 21.4858 8.92854L18.4858 6.37855L11.4858 0.428545ZM17.25 7.29683L11 1.98433L4.75002 7.29683V17C4.75002 17.1381 4.86194 17.25 5.00002 17.25H17C17.1381 17.25 17.25 17.1381 17.25 17V7.29683Z" fill="#AAAAAA"/>
</svg>
